<svg xmlns="http://www.w3.org/2000/svg" viewBox="0 0 32.22 65.93"><defs><style>.cls-1{fill:#fff;fill-rule:evenodd}</style></defs><g id="Layer_2" data-name="Layer 2"><g id="Layer_1-2" data-name="Layer 1"><path class="cls-1" d="M16.42 60.66a2.64 2.64 0 102.63 2.64 2.64 2.64 0 00-2.63-2.64zM16.46 5.26a2.63 2.63 0 10-2.63-2.63 2.63 2.63 0 002.63 2.63zM25.17 24.75a3.27 3.27 0 002.72 3.84 3.55 3.55 0 004.13-3 14 14 0 00-.42-6.46 15.39 15.39 0 00-2.09-4.31A16.06 16.06 0 0013.94 8a15.25 15.25 0 00-8 3.9 17.42 17.42 0 00-4.92 7.79 12.71 12.71 0 00-.51 5 8 8 0 002.75 5.11c3.39 2.81 8.08 3.08 12 3.75 7.23 1.24 11.89 5.39 11.13 11.73-.82 6.91-4.91 11.36-10.56 11.3-8-.1-12.69-9.72-9.69-13.6a4.36 4.36 0 001-2 3.27 3.27 0 00-2.72-3.84 3.53 3.53 0 00-4.12 3 13.82 13.82 0 00.41 6.46 15.81 15.81 0 002 4.3 16.06 16.06 0 0015.57 6.84 15.28 15.28 0 008-3.9 17.4 17.4 0 004.91-7.79 12.53 12.53 0 00.51-5A7.91 7.91 0 0029 36c-3.39-2.81-8.08-3.09-12-3.75C9.77 31 5.11 26.82 5.87 20.47c.82-6.9 4.91-11.36 10.57-11.29 8 .09 12.68 9.72 9.68 13.6a4.36 4.36 0 00-.95 1.97z"/></g></g></svg>